<svg width="135" height="25" viewBox="0 0 135 25" fill="none" xmlns="http://www.w3.org/2000/svg">
<path d="M5.39733 25V5.65067H0.405333V-0.00266647H17.6V5.65067H12.608V25H5.39733ZM26.7532 25H19.6918V-0.00266647H26.7532V9.896H32.2358V-0.00266647H39.2972V25H32.2358V14.8027H26.7532V25ZM42.3933 25V-0.00266647H49.668V25H42.3933ZM59.5633 25H52.7793V2.00267L51.734 -0.00266647H59.5847L63.51 8.104L67.2647 16.1893L66.2193 6.696V-0.00266647H73.0247V25H66.518L61.4407 15.1227L58.3047 8.936L59.5633 17.128V25ZM88.2003 25C88.0297 24.7867 87.6599 23.9547 87.091 22.504C86.5363 21.0391 85.8821 19.3893 85.1283 17.5547C84.3888 15.7058 83.7346 14.3049 83.1657 13.352V25H76.1043V-0.00266647H83.1657V11.9653L88.4777 -0.00266647H95.5817L89.2243 11.7307C89.6368 12.0151 90.1843 12.7902 90.867 14.056C91.5497 15.3218 92.1897 16.6516 92.787 18.0453C93.3843 19.4391 94.003 20.84 94.643 22.248C95.283 23.6418 95.7523 24.5591 96.051 25H88.2003Z" fill="white"/>
<path d="M118.396 25L117.436 21.0107H111.377L110.567 25H104.295L110.801 1.72533L110.289 -0.00266647H119.1L126.225 25H118.396ZM114.129 7.336L112.252 16.6587H116.391L114.129 7.336ZM127.331 25V-0.00266647H134.606V25H127.331Z" fill="#A8E726"/>
</svg>
